<?xml version="1.0" standalone="no"?><!DOCTYPE svg PUBLIC "-//W3C//DTD SVG 1.1//EN" "http://www.w3.org/Graphics/SVG/1.1/DTD/svg11.dtd"><svg class="icon" width="200px" height="200.00px" viewBox="0 0 1024 1024" version="1.1" xmlns="http://www.w3.org/2000/svg"><path d="M460.885333 758.186667a29.994667 29.994667 0 1 1-0.085333 59.989333 29.994667 29.994667 0 0 1 0.085333-59.989333m470.357334-185.472a29.994667 29.994667 0 1 1 0.042666-59.989334 29.994667 29.994667 0 0 1-0.042666 59.989334m0-122.709334a92.842667 92.842667 0 0 0-92.757334 92.757334c0 9.941333 1.664 19.84 4.906667 29.482666l-306.389333 163.114667a92.373333 92.373333 0 0 0-76.117334-39.978667c-35.370667 0-67.584 20.266667-83.2 51.882667l-275.242666-145.152c-29.098667-15.274667-50.858667-63.146667-48.554667-106.752 1.194667-22.741333 9.045333-40.405333 21.034667-47.232 7.594667-4.266667 16.725333-3.925333 26.453333 1.152l1.792 0.981333c72.96 38.4 311.637333 164.138667 321.706667 168.789334 15.488 7.210667 24.106667 10.112 50.56-2.432l493.397333-256.597334c7.253333-2.730667 15.701333-9.685333 15.701333-20.224 0-14.592-15.104-20.352-15.146666-20.352-28.074667-13.44-71.210667-33.621333-113.28-53.333333-89.941333-42.112-191.872-89.813333-236.629334-113.28-38.656-20.224-69.76-3.157333-75.306666 0.256l-10.752 5.333333C331.946667 258.048 62.293333 391.594667 46.933333 400.938667 19.498667 417.664 2.474667 450.986667 0.256 492.330667c-3.413333 65.578667 29.994667 133.973333 77.824 159.018666l291.072 150.101334a92.8 92.8 0 0 0 91.733333 79.445333 92.885333 92.885333 0 0 0 92.714667-91.306667l320.597333-173.781333c16.213333 12.714667 36.394667 19.669333 57.045334 19.669333A92.842667 92.842667 0 0 0 1024 542.72a92.842667 92.842667 0 0 0-92.757333-92.757333" /></svg>